
<global>
amp_veltrack=0
ampeg_attack=0.007
ampeg_release=1.50
</global>

<group>
group_label=RR1_0-42
seq_length=4
seq_position=1
xf_cccurve=gain
xfin_hicc1=42
xfout_hicc1=84
xfout_locc1=42

<region>
end=47043
fade_out=46193
hivel=127
key=G6
lovel=0
offset=4021
sample=Violins1_staccato_PP_G6_RR1.opus
</region>

<region>
end=48000
fade_out=47150
hivel=127
key=G5
lovel=0
offset=3516
sample=Violins1_staccato_PP_G5_RR1.opus
</region>

<region>
end=48000
fade_out=47150
hivel=127
key=G4
lovel=0
offset=3504
sample=Violins1_staccato_PP_G4_RR1.opus
</region>

<region>
end=48000
fade_out=47150
hivel=127
key=G3
lovel=0
offset=4554
sample=Violins1_staccato_PP_G3_RR1.opus
</region>

<region>
end=48000
fade_out=47150
hivel=127
key=G#6
lovel=0
offset=2959
sample=Violins1_staccato_PP_G#6_RR1.opus
</region>

<region>
end=48000
fade_out=47150
hivel=127
key=G#5
lovel=0
offset=3494
sample=Violins1_staccato_PP_G#5_RR1.opus
</region>

<region>
end=48000
fade_out=47150
hivel=127
key=G#4
lovel=0
offset=1278
sample=Violins1_staccato_PP_G#4_RR1.opus
</region>

<region>
end=48000
fade_out=47150
hivel=127
key=G#3
lovel=0
offset=4679
sample=Violins1_staccato_PP_G#3_RR1.opus
</region>

<region>
end=48000
fade_out=47150
hivel=127
key=F6
lovel=0
offset=2590
sample=Violins1_staccato_PP_F6_RR1.opus
</region>

<region>
end=48000
fade_out=47150
hivel=127
key=F5
lovel=0
offset=2525
sample=Violins1_staccato_PP_F5_RR1.opus
</region>

<region>
end=48000
fade_out=47150
hivel=127
key=F4
lovel=0
offset=5066
sample=Violins1_staccato_PP_F4_RR1.opus
</region>

<region>
end=48000
fade_out=47150
hivel=127
key=F#6
lovel=0
offset=2620
sample=Violins1_staccato_PP_F#6_RR1.opus
</region>

<region>
end=48000
fade_out=47150
hivel=127
key=F#5
lovel=0
offset=4445
sample=Violins1_staccato_PP_F#5_RR1.opus
</region>

<region>
end=48000
fade_out=47150
hivel=127
key=F#4
lovel=0
offset=2486
sample=Violins1_staccato_PP_F#4_RR1.opus
</region>

<region>
end=48000
fade_out=47150
hivel=127
key=E6
lovel=0
offset=2488
sample=Violins1_staccato_PP_E6_RR1.opus
</region>

<region>
end=48000
fade_out=47150
hivel=127
key=E5
lovel=0
offset=4204
sample=Violins1_staccato_PP_E5_RR1.opus
</region>

<region>
end=48000
fade_out=47150
hivel=127
key=E4
lovel=0
offset=3257
sample=Violins1_staccato_PP_E4_RR1.opus
</region>

<region>
end=48000
fade_out=47150
hivel=127
key=D6
lovel=0
offset=3590
sample=Violins1_staccato_PP_D6_RR1.opus
</region>

<region>
end=48000
fade_out=47150
hivel=127
key=D5
lovel=0
offset=2995
sample=Violins1_staccato_PP_D5_RR1.opus
</region>

<region>
end=48000
fade_out=47150
hivel=127
key=D4
lovel=0
offset=785
sample=Violins1_staccato_PP_D4_RR1.opus
</region>

<region>
end=48000
fade_out=47150
hivel=127
key=D#6
lovel=0
offset=4388
sample=Violins1_staccato_PP_D#6_RR1.opus
</region>

<region>
end=48000
fade_out=47150
hivel=127
key=D#5
lovel=0
offset=2928
sample=Violins1_staccato_PP_D#5_RR1.opus
</region>

<region>
end=48000
fade_out=47150
hivel=127
key=D#4
lovel=0
offset=2786
sample=Violins1_staccato_PP_D#4_RR1.opus
</region>

<region>
end=48000
fade_out=47150
hikey=E7
hivel=127
lokey=C7
lovel=0
offset=1955
pitch_keycenter=C7
sample=Violins1_staccato_PP_C7_RR1.opus
</region>

<region>
end=48000
fade_out=47150
hivel=127
key=C6
lovel=0
offset=1254
sample=Violins1_staccato_PP_C6_RR1.opus
</region>

<region>
end=48000
fade_out=47150
hivel=127
key=C5
lovel=0
offset=4585
sample=Violins1_staccato_PP_C5_RR1.opus
</region>

<region>
end=48000
fade_out=47150
hivel=127
key=C4
lovel=0
offset=1963
sample=Violins1_staccato_PP_C4_RR1.opus
</region>

<region>
end=48000
fade_out=47150
hivel=127
key=C#6
lovel=0
offset=623
sample=Violins1_staccato_PP_C#6_RR1.opus
</region>

<region>
end=48000
fade_out=47150
hivel=127
key=C#5
lovel=0
offset=2928
sample=Violins1_staccato_PP_C#5_RR1.opus
</region>

<region>
end=48000
fade_out=47150
hivel=127
key=C#4
lovel=0
offset=954
sample=Violins1_staccato_PP_C#4_RR1.opus
</region>

<region>
end=48000
fade_out=47150
hivel=127
key=B6
lovel=0
offset=2647
sample=Violins1_staccato_PP_B6_RR1.opus
</region>

<region>
end=48000
fade_out=47150
hivel=127
key=B5
lovel=0
offset=1696
sample=Violins1_staccato_PP_B5_RR1.opus
</region>

<region>
end=48000
fade_out=47150
hivel=127
key=B4
lovel=0
offset=4581
sample=Violins1_staccato_PP_B4_RR1.opus
</region>

<region>
end=48000
fade_out=47150
hivel=127
key=B3
lovel=0
offset=1325
sample=Violins1_staccato_PP_B3_RR1.opus
</region>

<region>
end=48000
fade_out=47150
hivel=127
key=A6
lovel=0
offset=3040
sample=Violins1_staccato_PP_A6_RR1.opus
</region>

<region>
end=48000
fade_out=47150
hivel=127
key=A5
lovel=0
offset=2965
sample=Violins1_staccato_PP_A5_RR1.opus
</region>

<region>
end=46763
fade_out=45900
hivel=127
key=A4
lovel=0
offset=1088
sample=Violins1_staccato_PP_A4_RR1.opus
</region>

<region>
end=48000
fade_out=47150
hivel=127
key=A3
lovel=0
offset=1246
sample=Violins1_staccato_PP_A3_RR1.opus
</region>

<region>
end=48000
fade_out=47150
hivel=127
key=A#6
lovel=0
offset=3049
sample=Violins1_staccato_PP_A#6_RR1.opus
</region>

<region>
end=48000
fade_out=47150
hivel=127
key=A#5
lovel=0
offset=1511
sample=Violins1_staccato_PP_A#5_RR1.opus
</region>

<region>
end=48000
fade_out=47150
hivel=127
key=A#4
lovel=0
offset=2068
sample=Violins1_staccato_PP_A#4_RR1.opus
</region>

<region>
end=48000
fade_out=47150
hivel=127
key=A#3
lovel=0
offset=4070
sample=Violins1_staccato_PP_A#3_RR1.opus
</region>
</group>

<group>
group_label=RR1_43-84
seq_length=4
seq_position=1
xf_cccurve=gain
xfin_hicc1=84
xfin_locc1=43
xfout_hicc1=125
xfout_locc1=84

<region>
end=48000
fade_out=47150
hivel=127
key=G6
lovel=0
offset=98
sample=Violins1_staccato_MF_G6_RR1.opus
</region>

<region>
end=48000
fade_out=47150
hivel=127
key=G5
lovel=0
sample=Violins1_staccato_MF_G5_RR1.opus
</region>

<region>
end=48000
fade_out=47150
hivel=127
key=G4
lovel=0
sample=Violins1_staccato_MF_G4_RR1.opus
</region>

<region>
end=48000
fade_out=47150
hivel=127
key=G3
lovel=0
sample=Violins1_staccato_MF_G3_RR1.opus
</region>

<region>
end=48000
fade_out=47150
hivel=127
key=G#6
lovel=0
offset=479
sample=Violins1_staccato_MF_G#6_RR1.opus
</region>

<region>
end=48000
fade_out=47150
hivel=127
key=g#5
lovel=0
offset=163
sample=Violins1_staccato_MF_G#5_RR1.opus
</region>

<region>
end=48000
fade_out=47150
hivel=127
key=G#4
lovel=0
sample=Violins1_staccato_MF_G#4_RR1.opus
</region>

<region>
end=48000
fade_out=47150
hivel=127
key=G#3
lovel=0
sample=Violins1_staccato_MF_G#3_RR1.opus
</region>

<region>
end=48000
fade_out=47150
hivel=127
key=F6
lovel=0
offset=277
sample=Violins1_staccato_MF_F6_RR1.opus
</region>

<region>
end=48000
fade_out=47150
hivel=127
key=F5
lovel=0
sample=Violins1_staccato_MF_F5_RR1.opus
</region>

<region>
end=48000
fade_out=47150
hivel=127
key=F4
lovel=0
sample=Violins1_staccato_MF_F4_RR1.opus
</region>

<region>
end=48000
fade_out=47150
hivel=127
key=F#6
lovel=0
offset=866
sample=Violins1_staccato_MF_F#6_RR1.opus
</region>

<region>
end=48000
fade_out=47150
hivel=127
key=F#5
lovel=0
sample=Violins1_staccato_MF_F#5_RR1.opus
</region>

<region>
end=48000
fade_out=47150
hivel=127
key=F#4
lovel=0
sample=Violins1_staccato_MF_F#4_RR1.opus
</region>

<region>
end=48000
fade_out=47150
hivel=127
key=E6
lovel=0
sample=Violins1_staccato_MF_E6_RR1.opus
</region>

<region>
end=48000
fade_out=47150
hivel=127
key=E5
lovel=0
offset=661
sample=Violins1_staccato_MF_E5_RR1.opus
</region>

<region>
end=48000
fade_out=47150
hivel=127
key=E4
lovel=0
sample=Violins1_staccato_MF_E4_RR1.opus
</region>

<region>
end=48000
fade_out=47150
hivel=127
key=D6
lovel=0
offset=345
sample=Violins1_staccato_MF_D6_RR1.opus
</region>

<region>
end=48000
fade_out=47150
hivel=127
key=D5
lovel=0
offset=68
sample=Violins1_staccato_MF_D5_RR1.opus
</region>

<region>
end=48000
fade_out=47150
hivel=127
key=D4
lovel=0
sample=Violins1_staccato_MF_D4_RR1.opus
</region>

<region>
end=48000
fade_out=47150
hivel=127
key=D#6
lovel=0
sample=Violins1_staccato_MF_D#6_RR1.opus
</region>

<region>
end=48000
fade_out=47150
hivel=127
key=D#5
lovel=0
sample=Violins1_staccato_MF_D#5_RR1.opus
</region>

<region>
end=48000
fade_out=47150
hivel=127
key=D#4
lovel=0
sample=Violins1_staccato_MF_D#4_RR1.opus
</region>

<region>
end=48000
fade_out=47150
hikey=E7
hivel=127
lokey=C7
lovel=0
pitch_keycenter=C7
sample=Violins1_staccato_MF_C7_RR1.opus
</region>

<region>
end=48000
fade_out=47150
hivel=127
key=C6
lovel=0
sample=Violins1_staccato_MF_C6_RR1.opus
</region>

<region>
end=45091
fade_out=44241
hivel=127
key=C5
lovel=0
sample=Violins1_staccato_MF_C5_RR1.opus
</region>

<region>
end=48000
fade_out=47150
hivel=127
key=C4
lovel=0
sample=Violins1_staccato_MF_C4_RR1.opus
</region>

<region>
end=48000
fade_out=47150
hivel=127
key=C#6
lovel=0
sample=Violins1_staccato_MF_C#6_RR1.opus
</region>

<region>
end=48000
fade_out=47150
hivel=127
key=C#5
lovel=0
sample=Violins1_staccato_MF_C#5_RR1.opus
</region>

<region>
end=48000
fade_out=47150
hivel=127
key=C#4
lovel=0
sample=Violins1_staccato_MF_C#4_RR1.opus
</region>

<region>
end=48000
fade_out=47150
hivel=127
key=B6
lovel=0
sample=Violins1_staccato_MF_B6_RR1.opus
</region>

<region>
end=48000
fade_out=47150
hivel=127
key=B5
lovel=0
offset=184
sample=Violins1_staccato_MF_B5_RR1.opus
</region>

<region>
end=48000
fade_out=47150
hivel=127
key=B4
lovel=0
offset=305
sample=Violins1_staccato_MF_B4_RR1.opus
</region>

<region>
end=48000
fade_out=47150
hivel=127
key=B3
lovel=0
sample=Violins1_staccato_MF_B3_RR1.opus
</region>

<region>
end=48000
fade_out=47150
hivel=127
key=A6
lovel=0
sample=Violins1_staccato_MF_A6_RR1.opus
</region>

<region>
end=48000
fade_out=47150
hivel=127
key=A5
lovel=0
sample=Violins1_staccato_MF_A5_RR1.opus
</region>

<region>
end=48000
fade_out=47150
hivel=127
key=A4
lovel=0
sample=Violins1_staccato_MF_A4_RR1.opus
</region>

<region>
end=48000
fade_out=47150
hivel=127
key=A3
lovel=0
sample=Violins1_staccato_MF_A3_RR1.opus
</region>

<region>
end=48000
fade_out=47150
hivel=127
key=A#6
lovel=0
sample=Violins1_staccato_MF_A#6_RR1.opus
</region>

<region>
end=48000
fade_out=47150
hivel=127
key=A#5
lovel=0
sample=Violins1_staccato_MF_A#5_RR1.opus
</region>

<region>
end=48000
fade_out=47150
hivel=127
key=A#4
lovel=0
sample=Violins1_staccato_MF_A#4_RR1.opus
</region>

<region>
end=48000
fade_out=47150
hivel=127
key=A#3
lovel=0
offset=550
sample=Violins1_staccato_MF_A#3_RR1.opus
</region>
</group>

<group>
group_label=RR1_85-127
seq_length=4
seq_position=1
xf_cccurve=gain
xfin_hicc1=127
xfin_locc1=85
xfout_hicc1=127
xfout_locc1=127

<region>
end=47500
fade_out=46650
hivel=127
key=G6
lovel=0
sample=Violins1_staccato_FF_G6_RR1.opus
</region>

<region>
end=47500
fade_out=46650
hivel=127
key=G5
lovel=0
sample=Violins1_staccato_FF_G5_RR1.opus
</region>

<region>
end=47500
fade_out=46650
hivel=127
key=G4
lovel=0
sample=Violins1_staccato_FF_G4_RR1.opus
</region>

<region>
end=47500
fade_out=46650
hivel=127
key=g3
lovel=1
sample=Violins1_staccato_FF_G3_RR1.opus
</region>

<region>
end=47500
fade_out=46650
hivel=127
key=G#6
lovel=0
sample=Violins1_staccato_FF_G#6_RR1.opus
</region>

<region>
end=47500
fade_out=46650
hivel=127
key=G#5
lovel=0
sample=Violins1_staccato_FF_G#5_RR1.opus
</region>

<region>
end=47500
fade_out=46650
hivel=127
key=G#4
lovel=0
sample=Violins1_staccato_FF_G#4_RR1.opus
</region>

<region>
end=47500
fade_out=46650
hivel=127
key=G#3
lovel=0
offset=740
sample=Violins1_staccato_FF_G#3_RR1.opus
</region>

<region>
end=47500
fade_out=46650
hivel=127
key=F6
lovel=0
sample=Violins1_staccato_FF_F6_RR1.opus
</region>

<region>
end=47500
fade_out=46650
hivel=127
key=F5
lovel=0
sample=Violins1_staccato_FF_F5_RR1.opus
</region>

<region>
end=47500
fade_out=46650
hivel=127
key=F4
lovel=0
offset=480
sample=Violins1_staccato_FF_F4_RR1.opus
</region>

<region>
end=47500
fade_out=46650
hivel=127
key=F#6
lovel=0
offset=250
sample=Violins1_staccato_FF_F#6_RR1.opus
</region>

<region>
end=47500
fade_out=46650
hivel=127
key=F#5
lovel=0
sample=Violins1_staccato_FF_F#5_RR1.opus
</region>

<region>
end=47500
fade_out=46650
hivel=127
key=F#4
lovel=0
sample=Violins1_staccato_FF_F#4_RR1.opus
</region>

<region>
end=47500
fade_out=46650
hivel=127
key=E6
lovel=0
sample=Violins1_staccato_FF_E6_RR1.opus
</region>

<region>
end=47500
fade_out=46650
hivel=127
key=E5
lovel=0
offset=527
sample=Violins1_staccato_FF_E5_RR1.opus
</region>

<region>
end=47500
fade_out=46650
hivel=127
key=E4
lovel=0
offset=490
sample=Violins1_staccato_FF_E4_RR1.opus
</region>

<region>
end=43972
fade_out=43122
hivel=127
key=D6
lovel=0
offset=512
sample=Violins1_staccato_FF_D6_RR1.opus
</region>

<region>
end=47500
fade_out=46650
hivel=127
key=D5
lovel=0
offset=507
sample=Violins1_staccato_FF_D5_RR1.opus
</region>

<region>
end=47500
fade_out=46650
hivel=127
key=D4
lovel=0
sample=Violins1_staccato_FF_D4_RR1.opus
</region>

<region>
end=47500
fade_out=46650
hivel=127
key=D#6
lovel=0
sample=Violins1_staccato_FF_D#6_RR1.opus
</region>

<region>
end=47500
fade_out=46650
hivel=127
key=D#5
lovel=0
sample=Violins1_staccato_FF_D#5_RR1.opus
</region>

<region>
end=47500
fade_out=46650
hivel=127
key=D#4
lovel=0
sample=Violins1_staccato_FF_D#4_RR1.opus
</region>

<region>
end=47500
fade_out=46650
hikey=E7
hivel=127
lokey=C7
lovel=0
offset=500
pitch_keycenter=C7
sample=Violins1_staccato_FF_C7_RR1.opus
</region>

<region>
end=47500
fade_out=46650
hivel=127
key=C6
lovel=0
offset=515
sample=Violins1_staccato_FF_C6_RR1.opus
</region>

<region>
end=47500
fade_out=46650
hivel=127
key=C5
lovel=0
sample=Violins1_staccato_FF_C5_RR1.opus
</region>

<region>
end=47500
fade_out=46650
hivel=127
key=C4
lovel=0
sample=Violins1_staccato_FF_C4_RR1.opus
</region>

<region>
end=47500
fade_out=46650
hivel=127
key=C#6
lovel=0
sample=Violins1_staccato_FF_C#6_RR1.opus
</region>

<region>
end=47500
fade_out=46650
hivel=127
key=C#5
lovel=0
sample=Violins1_staccato_FF_C#5_RR1.opus
</region>

<region>
end=47500
fade_out=46650
hivel=127
key=C#4
lovel=0
sample=Violins1_staccato_FF_C#4_RR1.opus
</region>

<region>
end=47500
fade_out=46650
hivel=127
key=B6
lovel=0
sample=Violins1_staccato_FF_B6_RR1.opus
</region>

<region>
end=47500
fade_out=46650
hivel=127
key=B5
lovel=0
offset=505
sample=Violins1_staccato_FF_B5_RR1.opus
</region>

<region>
end=47500
fade_out=46650
hivel=127
key=B4
lovel=0
sample=Violins1_staccato_FF_B4_RR1.opus
</region>

<region>
end=47500
fade_out=46650
hivel=127
key=B3
lovel=0
offset=490
sample=Violins1_staccato_FF_B3_RR1.opus
</region>

<region>
end=47500
fade_out=46650
hivel=127
key=A6
lovel=0
offset=380
sample=Violins1_staccato_FF_A6_RR1.opus
</region>

<region>
end=47500
fade_out=46650
hivel=127
key=A5
lovel=0
sample=Violins1_staccato_FF_A5_RR1.opus
</region>

<region>
end=47500
fade_out=46650
hivel=127
key=A4
lovel=0
sample=Violins1_staccato_FF_A4_RR1.opus
</region>

<region>
end=47500
fade_out=46650
hivel=127
key=A3
lovel=0
offset=747
sample=Violins1_staccato_FF_A3_RR1.opus
</region>

<region>
end=47500
fade_out=46650
hivel=127
key=A#6
lovel=0
sample=Violins1_staccato_FF_A#6_RR1.opus
</region>

<region>
end=47500
fade_out=46650
hivel=127
key=A#5
lovel=0
sample=Violins1_staccato_FF_A#5_RR1.opus
</region>

<region>
end=47500
fade_out=46650
hivel=127
key=A#4
lovel=0
sample=Violins1_staccato_FF_A#4_RR1.opus
</region>

<region>
end=47500
fade_out=46650
hivel=127
key=A#3
lovel=0
offset=455
sample=Violins1_staccato_FF_A#3_RR1.opus
</region>
</group>

<group>
group_label=RR2_0-42
seq_length=4
seq_position=2
xf_cccurve=gain
xfin_hicc1=42
xfout_hicc1=84
xfout_locc1=42

<region>
end=48000
fade_out=47150
hivel=127
key=G6
lovel=0
offset=51
sample=Violins1_staccato_PP_G6_RR2.opus
</region>

<region>
end=48000
fade_out=47150
hivel=127
key=G5
lovel=0
offset=1300
sample=Violins1_staccato_PP_G5_RR2.opus
</region>

<region>
end=48000
fade_out=47150
hivel=127
key=G4
lovel=0
offset=1796
sample=Violins1_staccato_PP_G4_RR2.opus
</region>

<region>
end=48000
fade_out=47150
hivel=127
key=G3
lovel=0
offset=5461
sample=Violins1_staccato_PP_G3_RR2.opus
</region>

<region>
end=48000
fade_out=47150
hivel=127
key=G#6
lovel=0
offset=1707
sample=Violins1_staccato_PP_G#6_RR2.opus
</region>

<region>
end=48000
fade_out=47150
hivel=127
key=G#5
lovel=0
offset=598
sample=Violins1_staccato_PP_G#5_RR2.opus
</region>

<region>
end=48000
fade_out=47150
hivel=127
key=G#4
lovel=0
offset=163
sample=Violins1_staccato_PP_G#4_RR2.opus
</region>

<region>
end=48000
fade_out=47150
hivel=127
key=G#3
lovel=0
offset=2433
sample=Violins1_staccato_PP_G#3_RR2.opus
</region>

<region>
end=48000
fade_out=47150
hivel=127
key=F6
lovel=0
offset=1936
sample=Violins1_staccato_PP_F6_RR2.opus
</region>

<region>
end=48000
fade_out=47150
hivel=127
key=F5
lovel=0
offset=2668
sample=Violins1_staccato_PP_F5_RR2.opus
</region>

<region>
end=48000
fade_out=47150
hivel=127
key=F4
lovel=0
offset=1978
sample=Violins1_staccato_PP_F4_RR2.opus
</region>

<region>
end=48000
fade_out=47150
hivel=127
key=F#6
lovel=0
offset=1812
sample=Violins1_staccato_PP_F#6_RR2.opus
</region>

<region>
end=48000
fade_out=47150
hivel=127
key=F#5
lovel=0
offset=2112
sample=Violins1_staccato_PP_F#5_RR2.opus
</region>

<region>
end=48000
fade_out=47150
hivel=127
key=F#4
lovel=0
offset=1083
sample=Violins1_staccato_PP_F#4_RR2.opus
</region>

<region>
end=48000
fade_out=47150
hivel=127
key=E6
lovel=0
offset=3769
sample=Violins1_staccato_PP_E6_RR2.opus
</region>

<region>
end=48000
fade_out=47150
hivel=127
key=E5
lovel=0
offset=2769
sample=Violins1_staccato_PP_E5_RR2.opus
</region>

<region>
end=48000
fade_out=47150
hivel=127
key=E4
lovel=0
offset=1182
sample=Violins1_staccato_PP_E4_RR2.opus
</region>

<region>
end=48000
fade_out=47150
hivel=127
key=D6
lovel=0
offset=2854
sample=Violins1_staccato_PP_D6_RR2.opus
</region>

<region>
end=48000
fade_out=47150
hivel=127
key=D5
lovel=0
offset=2183
sample=Violins1_staccato_PP_D5_RR2.opus
</region>

<region>
end=48000
fade_out=47150
hivel=127
key=D4
lovel=0
offset=892
sample=Violins1_staccato_PP_D4_RR2.opus
</region>

<region>
end=48000
fade_out=47150
hivel=127
key=D#6
lovel=0
offset=2145
sample=Violins1_staccato_PP_D#6_RR2.opus
</region>

<region>
end=48000
fade_out=47150
hivel=127
key=D#5
lovel=0
offset=1832
sample=Violins1_staccato_PP_D#5_RR2.opus
</region>

<region>
end=48000
fade_out=47150
hivel=127
key=D#4
lovel=0
offset=2638
sample=Violins1_staccato_PP_D#4_RR2.opus
</region>

<region>
end=48000
fade_out=47150
hikey=E7
hivel=127
lokey=C7
lovel=0
offset=622
pitch_keycenter=C7
sample=Violins1_staccato_PP_C7_RR2.opus
</region>

<region>
end=48000
fade_out=47150
hivel=127
key=C6
lovel=0
offset=1125
sample=Violins1_staccato_PP_C6_RR2.opus
</region>

<region>
end=48000
fade_out=47150
hivel=127
key=C5
lovel=0
offset=2002
sample=Violins1_staccato_PP_C5_RR2.opus
</region>

<region>
end=48000
fade_out=47150
hivel=127
key=C4
lovel=0
offset=29
sample=Violins1_staccato_PP_C4_RR2.opus
</region>

<region>
end=48000
fade_out=47150
hivel=127
key=C#6
lovel=0
offset=845
sample=Violins1_staccato_PP_C#6_RR2.opus
</region>

<region>
end=48000
fade_out=47150
hivel=127
key=C#5
lovel=0
offset=1828
sample=Violins1_staccato_PP_C#5_RR2.opus
</region>

<region>
end=48000
fade_out=47150
hivel=127
key=C#4
lovel=0
offset=163
sample=Violins1_staccato_PP_C#4_RR2.opus
</region>

<region>
end=48000
fade_out=47150
hivel=127
key=B6
lovel=0
offset=953
sample=Violins1_staccato_PP_B6_RR2.opus
</region>

<region>
end=48000
fade_out=47150
hivel=127
key=B5
lovel=0
offset=2169
sample=Violins1_staccato_PP_B5_RR2.opus
</region>

<region>
end=48000
fade_out=47150
hivel=127
key=B4
lovel=0
offset=1937
sample=Violins1_staccato_PP_B4_RR2.opus
</region>

<region>
end=48000
fade_out=47150
hivel=127
key=B3
lovel=0
sample=Violins1_staccato_PP_B3_RR2.opus
</region>

<region>
end=48000
fade_out=47150
hivel=127
key=A6
lovel=0
offset=571
sample=Violins1_staccato_PP_A6_RR2.opus
</region>

<region>
end=48000
fade_out=47150
hivel=127
key=A5
lovel=0
offset=2869
sample=Violins1_staccato_PP_A5_RR2.opus
</region>

<region>
end=48000
fade_out=47150
hivel=127
key=A4
lovel=0
offset=1477
sample=Violins1_staccato_PP_A4_RR2.opus
</region>

<region>
end=48000
fade_out=47150
hivel=127
key=A3
lovel=0
sample=Violins1_staccato_PP_A3_RR2.opus
</region>

<region>
end=48000
fade_out=47150
hivel=127
key=A#6
lovel=0
offset=1993
sample=Violins1_staccato_PP_A#6_RR2.opus
</region>

<region>
end=48000
fade_out=47150
hivel=127
key=A#5
lovel=0
offset=2752
sample=Violins1_staccato_PP_A#5_RR2.opus
</region>

<region>
end=48000
fade_out=47150
hivel=127
key=A#4
lovel=0
offset=2452
sample=Violins1_staccato_PP_A#4_RR2.opus
</region>

<region>
end=48000
fade_out=47150
hivel=127
key=A#3
lovel=0
offset=1309
sample=Violins1_staccato_PP_A#3_RR2.opus
</region>
</group>

<group>
group_label=RR2_43-84
seq_length=4
seq_position=2
xf_cccurve=gain
xfin_hicc1=84
xfin_locc1=43
xfout_hicc1=125
xfout_locc1=84

<region>
end=45122
fade_out=44272
hivel=127
key=G6
lovel=0
offset=113
sample=Violins1_staccato_MF_G6_RR2.opus
</region>

<region>
end=47215
fade_out=46365
hivel=127
key=G5
lovel=0
offset=449
sample=Violins1_staccato_MF_G5_RR2.opus
</region>

<region>
end=51775
fade_out=50925
hivel=127
key=G4
lovel=0
offset=4167
sample=Violins1_staccato_MF_G4_RR2.opus
</region>

<region>
end=50634
fade_out=49784
hivel=127
key=G3
lovel=0
offset=3033
sample=Violins1_staccato_MF_G3_RR2.opus
</region>

<region>
end=46565
fade_out=45715
hivel=127
key=G#6
lovel=0
offset=994
sample=Violins1_staccato_MF_G#6_RR2.opus
</region>

<region>
hivel=127
key=G#5
lovel=0
offset=676
sample=Violins1_staccato_MF_G#5_RR2.opus
</region>

<region>
end=45476
fade_out=44626
hivel=127
key=G#4
lovel=0
offset=952
sample=Violins1_staccato_MF_G#4_RR2.opus
</region>

<region>
hivel=127
key=G#3
lovel=0
sample=Violins1_staccato_MF_G#3_RR2.opus
</region>

<region>
end=46447
fade_out=45597
hivel=127
key=F6
lovel=0
offset=785
sample=Violins1_staccato_MF_F6_RR2.opus
</region>

<region>
end=48217
fade_out=47367
hivel=127
key=F5
lovel=0
offset=300
sample=Violins1_staccato_MF_F5_RR2.opus
</region>

<region>
end=47531
fade_out=46681
hivel=127
key=F4
lovel=0
offset=552
sample=Violins1_staccato_MF_F4_RR2.opus
</region>

<region>
end=46670
fade_out=45820
hivel=127
key=F#6
lovel=0
offset=633
sample=Violins1_staccato_MF_F#6_RR2.opus
</region>

<region>
hivel=127
key=F#5
lovel=0
offset=298
sample=Violins1_staccato_MF_F#5_RR2.opus
</region>

<region>
end=46785
fade_out=45935
hivel=127
key=F#4
lovel=0
offset=687
sample=Violins1_staccato_MF_F#4_RR2.opus
</region>

<region>
end=47673
fade_out=46823
hivel=127
key=E6
lovel=0
offset=1448
sample=Violins1_staccato_MF_E6_RR2.opus
</region>

<region>
hivel=127
key=e5
lovel=0
offset=556
sample=Violins1_staccato_MF_E5_RR2.opus
</region>

<region>
hivel=127
key=E4
lovel=0
offset=456
sample=Violins1_staccato_MF_E4_RR2.opus
</region>

<region>
end=47106
fade_out=46256
hivel=127
key=D6
lovel=0
offset=345
sample=Violins1_staccato_MF_D6_RR2.opus
</region>

<region>
end=46857
fade_out=46007
hivel=127
key=D5
lovel=0
sample=Violins1_staccato_MF_D5_RR2.opus
</region>

<region>
end=47717
fade_out=46867
hivel=127
key=D4
lovel=0
sample=Violins1_staccato_MF_D4_RR2.opus
</region>

<region>
end=46589
fade_out=45739
hivel=127
key=D#6
lovel=0
offset=760
sample=Violins1_staccato_MF_D#6_RR2.opus
</region>

<region>
hivel=127
key=D#5
lovel=0
offset=116
sample=Violins1_staccato_MF_D#5_RR2.opus
</region>

<region>
end=47975
fade_out=47125
hivel=127
key=D#4
lovel=0
offset=365
sample=Violins1_staccato_MF_D#4_RR2.opus
</region>

<region>
hikey=E7
hivel=127
lokey=C7
lovel=0
offset=490
pitch_keycenter=C7
sample=Violins1_staccato_MF_C7_RR2.opus
</region>

<region>
end=47595
fade_out=46745
hivel=127
key=C6
lovel=0
offset=177
sample=Violins1_staccato_MF_C6_RR2.opus
</region>

<region>
end=50866
fade_out=50016
hivel=127
key=C5
lovel=0
offset=511
sample=Violins1_staccato_MF_C5_RR2.opus
</region>

<region>
end=48069
fade_out=47219
hivel=127
key=C4
lovel=0
sample=Violins1_staccato_MF_C4_RR2.opus
</region>

<region>
end=47985
fade_out=47135
hivel=127
key=C#6
lovel=0
offset=446
sample=Violins1_staccato_MF_C#6_RR2.opus
</region>

<region>
hivel=127
key=C#5
lovel=0
sample=Violins1_staccato_MF_C#5_RR2.opus
</region>

<region>
end=46755
fade_out=45905
hivel=127
key=C#4
lovel=0
sample=Violins1_staccato_MF_C#4_RR2.opus
</region>

<region>
end=47043
fade_out=46193
hivel=127
key=B6
lovel=0
offset=707
sample=Violins1_staccato_MF_B6_RR2.opus
</region>

<region>
hivel=127
key=B5
lovel=0
offset=441
sample=Violins1_staccato_MF_B5_RR2.opus
</region>

<region>
end=47200
fade_out=46350
hivel=127
key=B4
lovel=0
sample=Violins1_staccato_MF_B4_RR2.opus
</region>

<region>
end=47656
fade_out=46806
hivel=127
key=B3
lovel=0
sample=Violins1_staccato_MF_B3_RR2.opus
</region>

<region>
end=48663
fade_out=47813
hivel=127
key=A6
lovel=0
sample=Violins1_staccato_MF_A6_RR2.opus
</region>

<region>
end=47084
fade_out=46234
hivel=127
key=A5
lovel=0
offset=770
sample=Violins1_staccato_MF_A5_RR2.opus
</region>

<region>
end=47030
fade_out=46180
hivel=127
key=A4
lovel=0
sample=Violins1_staccato_MF_A4_RR2.opus
</region>

<region>
hivel=127
key=A3
lovel=0
offset=269
sample=Violins1_staccato_MF_A3_RR2.opus
</region>

<region>
end=47024
fade_out=46174
hivel=127
key=A#6
lovel=0
offset=1045
sample=Violins1_staccato_MF_A#6_RR2.opus
</region>

<region>
end=46955
fade_out=46105
hivel=127
key=A#5
lovel=0
offset=614
sample=Violins1_staccato_MF_A#5_RR2.opus
</region>

<region>
end=46742
fade_out=45892
hivel=127
key=A#4
lovel=0
offset=167
sample=Violins1_staccato_MF_A#4_RR2.opus
</region>

<region>
end=46931
fade_out=46081
hivel=127
key=A#3
lovel=0
offset=269
sample=Violins1_staccato_MF_A#3_RR2.opus
</region>
</group>

<group>
group_label=RR2_85-127
seq_length=4
seq_position=2
xf_cccurve=gain
xfin_hicc1=127
xfin_locc1=85
xfout_hicc1=127
xfout_locc1=127

<region>
end=47902
fade_out=47052
hivel=127
key=G6
lovel=0
sample=Violins1_staccato_FF_G6_RR2.opus
</region>

<region>
end=46484
fade_out=45634
hivel=127
key=G5
lovel=0
sample=Violins1_staccato_FF_G5_RR2.opus
</region>

<region>
hivel=127
key=G4
lovel=0
sample=Violins1_staccato_FF_G4_RR2.opus
</region>

<region>
end=46229
fade_out=45379
hivel=127
key=G3
lovel=0
offset=732
sample=Violins1_staccato_FF_G3_RR2.opus
</region>

<region>
end=46559
fade_out=45709
hivel=127
key=G#6
lovel=0
offset=329
sample=Violins1_staccato_FF_G#6_RR2.opus
</region>

<region>
hivel=127
key=G#5
lovel=0
sample=Violins1_staccato_FF_G#5_RR2.opus
</region>

<region>
end=46801
fade_out=45951
hivel=127
key=G#4
lovel=0
sample=Violins1_staccato_FF_G#4_RR2.opus
</region>

<region>
end=47301
fade_out=46451
hivel=127
key=G#3
lovel=0
offset=676
sample=Violins1_staccato_FF_G#3_RR2.opus
</region>

<region>
hivel=127
key=F6
lovel=0
offset=490
sample=Violins1_staccato_FF_F6_RR2.opus
</region>

<region>
hivel=127
key=F5
lovel=0
sample=Violins1_staccato_FF_F5_RR2.opus
</region>

<region>
end=48214
fade_out=47364
hivel=127
key=F4
lovel=0
sample=Violins1_staccato_FF_F4_RR2.opus
</region>

<region>
end=45663
fade_out=44813
hivel=127
key=F#6
lovel=0
sample=Violins1_staccato_FF_F#6_RR2.opus
</region>

<region>
end=45423
fade_out=44573
hivel=127
key=F#5
lovel=0
sample=Violins1_staccato_FF_F#5_RR2.opus
</region>

<region>
end=47319
fade_out=46469
hivel=127
key=F#4
lovel=0
sample=Violins1_staccato_FF_F#4_RR2.opus
</region>

<region>
end=46717
fade_out=45867
hivel=127
key=E6
lovel=0
offset=498
sample=Violins1_staccato_FF_E6_RR2.opus
</region>

<region>
end=47299
fade_out=46449
hivel=127
key=E5
lovel=0
offset=472
sample=Violins1_staccato_FF_E5_RR2.opus
</region>

<region>
end=46752
fade_out=45902
hivel=127
key=E4
lovel=0
sample=Violins1_staccato_FF_E4_RR2.opus
</region>

<region>
end=47002
fade_out=46152
hivel=127
key=D6
lovel=0
offset=503
sample=Violins1_staccato_FF_D6_RR2.opus
</region>

<region>
end=46734
fade_out=45884
hivel=127
key=D5
lovel=0
offset=411
sample=Violins1_staccato_FF_D5_RR2.opus
</region>

<region>
hivel=127
key=D4
lovel=0
sample=Violins1_staccato_FF_D4_RR2.opus
</region>

<region>
hivel=127
key=D#6
lovel=0
offset=485
sample=Violins1_staccato_FF_D#6_RR2.opus
</region>

<region>
hivel=127
key=D#5
lovel=0
sample=Violins1_staccato_FF_D#5_RR2.opus
</region>

<region>
end=46882
fade_out=46032
hivel=127
key=D#4
lovel=0
sample=Violins1_staccato_FF_D#4_RR2.opus
</region>

<region>
end=47145
fade_out=46295
hikey=E7
hivel=127
lokey=C7
lovel=0
pitch_keycenter=C7
sample=Violins1_staccato_FF_C7_RR2.opus
</region>

<region>
end=46355
fade_out=45505
hivel=127
key=C6
lovel=0
sample=Violins1_staccato_FF_C6_RR2.opus
</region>

<region>
end=47576
fade_out=46726
hivel=127
key=C5
lovel=0
sample=Violins1_staccato_FF_C5_RR2.opus
</region>

<region>
hivel=127
key=C4
lovel=0
sample=Violins1_staccato_FF_C4_RR2.opus
</region>

<region>
hivel=127
key=C#6
lovel=0
sample=Violins1_staccato_FF_C#6_RR2.opus
</region>

<region>
hivel=127
key=C#5
lovel=0
sample=Violins1_staccato_FF_C#5_RR2.opus
</region>

<region>
end=47583
fade_out=46733
hivel=127
key=C#4
lovel=0
sample=Violins1_staccato_FF_C#4_RR2.opus
</region>

<region>
hivel=127
key=B6
lovel=0
sample=Violins1_staccato_FF_B6_RR2.opus
</region>

<region>
end=46172
fade_out=45322
hivel=127
key=B5
lovel=0
sample=Violins1_staccato_FF_B5_RR2.opus
</region>

<region>
end=47299
fade_out=46449
hivel=127
key=B4
lovel=0
sample=Violins1_staccato_FF_B4_RR2.opus
</region>

<region>
end=49477
fade_out=48627
hivel=127
key=B3
lovel=0
sample=Violins1_staccato_FF_B3_RR2.opus
</region>

<region>
end=47221
fade_out=46371
hivel=127
key=A6
lovel=0
sample=Violins1_staccato_FF_A6_RR2.opus
</region>

<region>
end=46429
fade_out=45579
hivel=127
key=A5
lovel=0
sample=Violins1_staccato_FF_A5_RR2.opus
</region>

<region>
end=45116
fade_out=44266
hivel=127
key=A4
lovel=0
sample=Violins1_staccato_FF_A4_RR2.opus
</region>

<region>
end=48468
fade_out=47618
hivel=127
key=A3
lovel=0
offset=730
sample=Violins1_staccato_FF_A3_RR2.opus
</region>

<region>
end=45518
fade_out=44668
hivel=127
key=A#6
lovel=0
sample=Violins1_staccato_FF_A#6_RR2.opus
</region>

<region>
hivel=127
key=A#5
lovel=0
sample=Violins1_staccato_FF_A#5_RR2.opus
</region>

<region>
end=45579
fade_out=44729
hivel=127
key=A#4
lovel=0
sample=Violins1_staccato_FF_A#4_RR2.opus
</region>

<region>
end=47141
fade_out=46291
hivel=127
key=A#3
lovel=0
offset=522
sample=Violins1_staccato_FF_A#3_RR2.opus
</region>
</group>

<group>
group_label=RR3_0-42
seq_length=4
seq_position=3
xf_cccurve=gain
xfin_hicc1=42
xfout_hicc1=84
xfout_locc1=42

<region>
end=48000
fade_out=47150
hivel=127
key=G6
lovel=0
offset=207
sample=Violins1_staccato_PP_G6_RR3.opus
</region>

<region>
end=48000
fade_out=47150
hivel=127
key=G5
lovel=0
offset=1583
sample=Violins1_staccato_PP_G5_RR3.opus
</region>

<region>
end=48000
fade_out=47150
hivel=127
key=G4
lovel=0
offset=444
sample=Violins1_staccato_PP_G4_RR3.opus
</region>

<region>
end=48000
fade_out=47150
hivel=127
key=G3
lovel=0
offset=5117
sample=Violins1_staccato_PP_G3_RR3.opus
</region>

<region>
end=48000
fade_out=47150
hivel=127
key=G#6
lovel=0
offset=1072
sample=Violins1_staccato_PP_G#6_RR3.opus
</region>

<region>
end=48000
fade_out=47150
hivel=127
key=G#5
lovel=0
offset=1085
sample=Violins1_staccato_PP_G#5_RR3.opus
</region>

<region>
end=48000
fade_out=47150
hivel=127
key=G#4
lovel=0
sample=Violins1_staccato_PP_G#4_RR3.opus
</region>

<region>
end=48000
fade_out=47150
hivel=127
key=G#3
lovel=0
offset=2382
sample=Violins1_staccato_PP_G#3_RR3.opus
</region>

<region>
end=48000
fade_out=47150
hivel=127
key=F6
lovel=0
offset=995
sample=Violins1_staccato_PP_F6_RR3.opus
</region>

<region>
end=48000
fade_out=47150
hivel=127
key=F5
lovel=0
offset=2158
sample=Violins1_staccato_PP_F5_RR3.opus
</region>

<region>
end=48000
fade_out=47150
hivel=127
key=F4
lovel=0
sample=Violins1_staccato_PP_F4_RR3.opus
</region>

<region>
end=48000
fade_out=47150
hivel=127
key=F#6
lovel=0
offset=2036
sample=Violins1_staccato_PP_F#6_RR3.opus
</region>

<region>
end=48000
fade_out=47150
hivel=127
key=F#5
lovel=0
offset=1752
sample=Violins1_staccato_PP_F#5_RR3.opus
</region>

<region>
end=48000
fade_out=47150
hivel=127
key=F#4
lovel=0
offset=1112
sample=Violins1_staccato_PP_F#4_RR3.opus
</region>

<region>
end=48000
fade_out=47150
hivel=127
key=E6
lovel=0
offset=2383
sample=Violins1_staccato_PP_E6_RR3.opus
</region>

<region>
end=48000
fade_out=47150
hivel=127
key=E5
lovel=0
offset=3017
sample=Violins1_staccato_PP_E5_RR3.opus
</region>

<region>
end=48000
fade_out=47150
hivel=127
key=E4
lovel=0
offset=1919
sample=Violins1_staccato_PP_E4_RR3.opus
</region>

<region>
end=48000
fade_out=47150
hivel=127
key=D6
lovel=0
offset=3132
sample=Violins1_staccato_PP_D6_RR3.opus
</region>

<region>
end=48000
fade_out=47150
hivel=127
key=D5
lovel=0
offset=967
sample=Violins1_staccato_PP_D5_RR3.opus
</region>

<region>
end=48000
fade_out=47150
hivel=127
key=D4
lovel=0
offset=1053
sample=Violins1_staccato_PP_D4_RR3.opus
</region>

<region>
end=48000
fade_out=47150
hivel=127
key=D#6
lovel=0
offset=2661
sample=Violins1_staccato_PP_D#6_RR3.opus
</region>

<region>
end=48000
fade_out=47150
hivel=127
key=D#5
lovel=0
offset=936
sample=Violins1_staccato_PP_D#5_RR3.opus
</region>

<region>
end=48000
fade_out=47150
hivel=127
key=D#4
lovel=0
offset=459
sample=Violins1_staccato_PP_D#4_RR3.opus
</region>

<region>
end=47236
fade_out=46386
hikey=E7
hivel=127
lokey=C7
lovel=0
offset=820
pitch_keycenter=C7
sample=Violins1_staccato_PP_C7_RR3.opus
</region>

<region>
end=48000
fade_out=47150
hivel=127
key=C6
lovel=0
offset=89
sample=Violins1_staccato_PP_C6_RR3.opus
</region>

<region>
end=48000
fade_out=47150
hivel=127
key=C5
lovel=0
offset=2799
sample=Violins1_staccato_PP_C5_RR3.opus
</region>

<region>
end=48000
fade_out=47150
hivel=127
key=C4
lovel=0
offset=505
sample=Violins1_staccato_PP_C4_RR3.opus
</region>

<region>
end=48000
fade_out=47150
hivel=127
key=C#6
lovel=0
offset=787
sample=Violins1_staccato_PP_C#6_RR3.opus
</region>

<region>
end=48000
fade_out=47150
hivel=127
key=C#5
lovel=0
offset=3056
sample=Violins1_staccato_PP_C#5_RR3.opus
</region>

<region>
end=48000
fade_out=47150
hivel=127
key=C#4
lovel=0
offset=2162
sample=Violins1_staccato_PP_C#4_RR3.opus
</region>

<region>
end=48000
fade_out=47150
hivel=127
key=B6
lovel=0
offset=1298
sample=Violins1_staccato_PP_B6_RR3.opus
</region>

<region>
end=48000
fade_out=47150
hivel=127
key=B5
lovel=0
offset=569
sample=Violins1_staccato_PP_B5_RR3.opus
</region>

<region>
end=48000
fade_out=47150
hivel=127
key=B4
lovel=0
sample=Violins1_staccato_PP_B4_RR3.opus
</region>

<region>
end=47625
fade_out=46775
hivel=127
key=B3
lovel=0
sample=Violins1_staccato_PP_B3_RR3.opus
</region>

<region>
end=48000
fade_out=47150
hivel=127
key=A6
lovel=0
offset=2265
sample=Violins1_staccato_PP_A6_RR3.opus
</region>

<region>
end=48000
fade_out=47150
hivel=127
key=A5
lovel=0
offset=2436
sample=Violins1_staccato_PP_A5_RR3.opus
</region>

<region>
end=48000
fade_out=47150
hivel=127
key=A4
lovel=0
offset=1826
sample=Violins1_staccato_PP_A4_RR3.opus
</region>

<region>
end=48000
fade_out=47150
hivel=127
key=A3
lovel=0
offset=406
sample=Violins1_staccato_PP_A3_RR3.opus
</region>

<region>
end=48000
fade_out=47150
hivel=127
key=A#6
lovel=0
offset=2418
sample=Violins1_staccato_PP_A#6_RR3.opus
</region>

<region>
end=48000
fade_out=47150
hivel=127
key=A#5
lovel=0
offset=1520
sample=Violins1_staccato_PP_A#5_RR3.opus
</region>

<region>
end=48000
fade_out=47150
hivel=127
key=A#4
lovel=0
offset=166
sample=Violins1_staccato_PP_A#4_RR3.opus
</region>

<region>
end=48000
fade_out=47150
hivel=127
key=A#3
lovel=0
offset=2470
sample=Violins1_staccato_PP_A#3_RR3.opus
</region>
</group>

<group>
group_label=RR3_43-84
seq_length=4
seq_position=3
xf_cccurve=gain
xfin_hicc1=84
xfin_locc1=43
xfout_hicc1=125
xfout_locc1=84

<region>
end=48346
fade_out=47496
hivel=127
key=G6
lovel=0
offset=1650
sample=Violins1_staccato_MF_G6_RR3.opus
</region>

<region>
end=46793
fade_out=45943
hivel=127
key=G5
lovel=0
offset=299
sample=Violins1_staccato_MF_G5_RR3.opus
</region>

<region>
hivel=127
key=G4
lovel=0
offset=518
sample=Violins1_staccato_MF_G4_RR3.opus
</region>

<region>
end=48828
fade_out=47978
hivel=127
key=G3
lovel=0
offset=1079
sample=Violins1_staccato_MF_G3_RR3.opus
</region>

<region>
hivel=127
key=G#6
lovel=0
offset=1122
sample=Violins1_staccato_MF_G#6_RR3.opus
</region>

<region>
end=45763
fade_out=44913
hivel=127
key=G#5
lovel=0
offset=202
sample=Violins1_staccato_MF_G#5_RR3.opus
</region>

<region>
end=46271
fade_out=45421
hivel=127
key=G#4
lovel=0
offset=494
sample=Violins1_staccato_MF_G#4_RR3.opus
</region>

<region>
hivel=127
key=G#3
lovel=0
offset=617
sample=Violins1_staccato_MF_G#3_RR3.opus
</region>

<region>
end=47111
fade_out=46261
hivel=127
key=F6
lovel=0
offset=806
sample=Violins1_staccato_MF_F6_RR3.opus
</region>

<region>
end=46459
fade_out=45609
hivel=127
key=F5
lovel=0
offset=600
sample=Violins1_staccato_MF_F5_RR3.opus
</region>

<region>
end=47233
fade_out=46383
hivel=127
key=F4
lovel=0
offset=264
sample=Violins1_staccato_MF_F4_RR3.opus
</region>

<region>
hivel=127
key=F#6
lovel=0
offset=1147
sample=Violins1_staccato_MF_F#6_RR3.opus
</region>

<region>
end=44571
fade_out=43721
hivel=127
key=F#5
lovel=0
offset=352
sample=Violins1_staccato_MF_F#5_RR3.opus
</region>

<region>
hivel=127
key=F#4
lovel=0
offset=547
sample=Violins1_staccato_MF_F#4_RR3.opus
</region>

<region>
end=47108
fade_out=46258
hivel=127
key=E6
lovel=0
offset=1376
sample=Violins1_staccato_MF_E6_RR3.opus
</region>

<region>
end=46294
fade_out=45444
hivel=127
key=E5
lovel=0
offset=996
sample=Violins1_staccato_MF_E5_RR3.opus
</region>

<region>
end=46591
fade_out=45741
hivel=127
key=E4
lovel=0
sample=Violins1_staccato_MF_E4_RR3.opus
</region>

<region>
end=46201
fade_out=45351
hivel=127
key=D6
lovel=0
offset=833
sample=Violins1_staccato_MF_D6_RR3.opus
</region>

<region>
end=51949
fade_out=51099
hivel=127
key=D5
lovel=0
offset=5154
sample=Violins1_staccato_MF_D5_RR3.opus
</region>

<region>
end=47234
fade_out=46384
hivel=127
key=D4
lovel=0
sample=Violins1_staccato_MF_D4_RR3.opus
</region>

<region>
end=47051
fade_out=46201
hivel=127
key=D#6
lovel=0
offset=618
sample=Violins1_staccato_MF_D#6_RR3.opus
</region>

<region>
end=46825
fade_out=45975
hivel=127
key=D#5
lovel=0
offset=718
sample=Violins1_staccato_MF_D#5_RR3.opus
</region>

<region>
end=46709
fade_out=45859
hivel=127
key=D#4
lovel=0
sample=Violins1_staccato_MF_D#4_RR3.opus
</region>

<region>
hikey=E7
hivel=127
lokey=C7
lovel=0
offset=1209
pitch_keycenter=C7
sample=Violins1_staccato_MF_C7_RR3.opus
</region>

<region>
end=47088
fade_out=46238
hivel=127
key=C6
lovel=0
offset=1139
sample=Violins1_staccato_MF_C6_RR3.opus
</region>

<region>
end=47271
fade_out=46421
hivel=127
key=C5
lovel=0
offset=369
sample=Violins1_staccato_MF_C5_RR3.opus
</region>

<region>
end=46643
fade_out=45793
hivel=127
key=C4
lovel=0
offset=462
sample=Violins1_staccato_MF_C4_RR3.opus
</region>

<region>
end=47321
fade_out=46471
hivel=127
key=C#6
lovel=0
offset=635
sample=Violins1_staccato_MF_C#6_RR3.opus
</region>

<region>
end=47465
fade_out=46615
hivel=127
key=C#5
lovel=0
offset=438
sample=Violins1_staccato_MF_C#5_RR3.opus
</region>

<region>
hivel=127
key=C#4
lovel=0
offset=337
sample=Violins1_staccato_MF_C#4_RR3.opus
</region>

<region>
hivel=127
key=B6
lovel=0
offset=508
sample=Violins1_staccato_MF_B6_RR3.opus
</region>

<region>
end=45998
fade_out=45148
hivel=127
key=B5
lovel=0
offset=437
sample=Violins1_staccato_MF_B5_RR3.opus
</region>

<region>
end=47307
fade_out=46457
hivel=127
key=B4
lovel=0
offset=1136
sample=Violins1_staccato_MF_B4_RR3.opus
</region>

<region>
hivel=127
key=B3
lovel=0
offset=856
sample=Violins1_staccato_MF_B3_RR3.opus
</region>

<region>
end=46949
fade_out=46099
hivel=127
key=A6
lovel=0
offset=761
sample=Violins1_staccato_MF_A6_RR3.opus
</region>

<region>
end=46475
fade_out=45625
hivel=127
key=A5
lovel=0
offset=679
sample=Violins1_staccato_MF_A5_RR3.opus
</region>

<region>
end=46468
fade_out=45618
hivel=127
key=A4
lovel=0
offset=834
sample=Violins1_staccato_MF_A4_RR3.opus
</region>

<region>
hivel=127
key=A3
lovel=0
offset=596
sample=Violins1_staccato_MF_A3_RR3.opus
</region>

<region>
end=46861
fade_out=46011
hivel=127
key=A#6
lovel=0
offset=619
sample=Violins1_staccato_MF_A#6_RR3.opus
</region>

<region>
hivel=127
key=A#5
lovel=0
offset=541
sample=Violins1_staccato_MF_A#5_RR3.opus
</region>

<region>
end=48033
fade_out=47183
hivel=127
key=A#4
lovel=0
offset=495
sample=Violins1_staccato_MF_A#4_RR3.opus
</region>

<region>
end=46766
fade_out=45916
hivel=127
key=A#3
lovel=0
offset=1768
sample=Violins1_staccato_MF_A#3_RR3.opus
</region>
</group>

<group>
group_label=RR3_85-127
seq_length=4
seq_position=3
xf_cccurve=gain
xfin_hicc1=127
xfin_locc1=85
xfout_hicc1=127
xfout_locc1=127

<region>
end=46727
fade_out=45877
hivel=127
key=G6
lovel=0
sample=Violins1_staccato_FF_G6_RR3.opus
</region>

<region>
end=47339
fade_out=46489
hivel=127
key=G5
lovel=0
sample=Violins1_staccato_FF_G5_RR3.opus
</region>

<region>
end=47527
fade_out=46677
hivel=127
key=G4
lovel=0
sample=Violins1_staccato_FF_G4_RR3.opus
</region>

<region>
end=47537
fade_out=46687
hivel=127
key=G3
lovel=0
sample=Violins1_staccato_FF_G3_RR3.opus
</region>

<region>
hivel=127
key=G#6
lovel=0
sample=Violins1_staccato_FF_G#6_RR3.opus
</region>

<region>
hivel=127
key=G#5
lovel=0
sample=Violins1_staccato_FF_G#5_RR3.opus
</region>

<region>
end=47395
fade_out=46545
hivel=127
key=G#4
lovel=0
sample=Violins1_staccato_FF_G#4_RR3.opus
</region>

<region>
hivel=127
key=G#3
lovel=0
offset=611
sample=Violins1_staccato_FF_G#3_RR3.opus
</region>

<region>
hivel=127
key=F6
lovel=0
sample=Violins1_staccato_FF_F6_RR3.opus
</region>

<region>
end=47622
fade_out=46772
hivel=127
key=F5
lovel=0
sample=Violins1_staccato_FF_F5_RR3.opus
</region>

<region>
end=46530
fade_out=45680
hivel=127
key=F4
lovel=0
sample=Violins1_staccato_FF_F4_RR3.opus
</region>

<region>
hivel=127
key=F#6
lovel=0
sample=Violins1_staccato_FF_F#6_RR3.opus
</region>

<region>
end=46846
fade_out=45996
hivel=127
key=F#5
lovel=0
sample=Violins1_staccato_FF_F#5_RR3.opus
</region>

<region>
end=46956
fade_out=46106
hivel=127
key=F#4
lovel=0
sample=Violins1_staccato_FF_F#4_RR3.opus
</region>

<region>
hivel=127
key=E6
lovel=0
sample=Violins1_staccato_FF_E6_RR3.opus
</region>

<region>
hivel=127
key=E5
lovel=0
sample=Violins1_staccato_FF_E5_RR3.opus
</region>

<region>
end=48120
fade_out=47270
hivel=127
key=E4
lovel=0
sample=Violins1_staccato_FF_E4_RR3.opus
</region>

<region>
end=47251
fade_out=46401
hivel=127
key=D6
lovel=0
sample=Violins1_staccato_FF_D6_RR3.opus
</region>

<region>
hivel=127
key=D5
lovel=0
sample=Violins1_staccato_FF_D5_RR3.opus
</region>

<region>
hivel=127
key=D4
lovel=0
sample=Violins1_staccato_FF_D4_RR3.opus
</region>

<region>
hivel=127
key=D#6
lovel=0
sample=Violins1_staccato_FF_D#6_RR3.opus
</region>

<region>
end=46311
fade_out=45461
hivel=127
key=D#5
lovel=0
sample=Violins1_staccato_FF_D#5_RR3.opus
</region>

<region>
end=47266
fade_out=46416
hivel=127
key=D#4
lovel=0
sample=Violins1_staccato_FF_D#4_RR3.opus
</region>

<region>
end=46440
fade_out=45590
hikey=E7
hivel=127
lokey=C7
lovel=0
pitch_keycenter=C7
sample=Violins1_staccato_FF_C7_RR3.opus
</region>

<region>
end=46380
fade_out=45530
hivel=127
key=C6
lovel=0
sample=Violins1_staccato_FF_C6_RR3.opus
</region>

<region>
end=48659
fade_out=47809
hivel=127
key=C5
lovel=0
sample=Violins1_staccato_FF_C5_RR3.opus
</region>

<region>
hivel=127
key=C4
lovel=0
sample=Violins1_staccato_FF_C4_RR3.opus
</region>

<region>
hivel=127
key=C#6
lovel=0
sample=Violins1_staccato_FF_C#6_RR3.opus
</region>

<region>
hivel=127
key=C#5
lovel=0
sample=Violins1_staccato_FF_C#5_RR3.opus
</region>

<region>
end=46771
fade_out=45921
hivel=127
key=C#4
lovel=0
sample=Violins1_staccato_FF_C#4_RR3.opus
</region>

<region>
hivel=127
key=B6
lovel=0
sample=Violins1_staccato_FF_B6_RR3.opus
</region>

<region>
hivel=127
key=B5
lovel=0
sample=Violins1_staccato_FF_B5_RR3.opus
</region>

<region>
hivel=127
key=B4
lovel=0
sample=Violins1_staccato_FF_B4_RR3.opus
</region>

<region>
hivel=127
key=B3
lovel=0
sample=Violins1_staccato_FF_B3_RR3.opus
</region>

<region>
end=46807
fade_out=45957
hivel=127
key=A6
lovel=0
sample=Violins1_staccato_FF_A6_RR3.opus
</region>

<region>
end=46719
fade_out=45869
hivel=127
key=A5
lovel=0
sample=Violins1_staccato_FF_A5_RR3.opus
</region>

<region>
hivel=127
key=A4
lovel=0
sample=Violins1_staccato_FF_A4_RR3.opus
</region>

<region>
hivel=127
key=A3
lovel=0
offset=613
sample=Violins1_staccato_FF_A3_RR3.opus
</region>

<region>
hivel=127
key=A#6
lovel=0
sample=Violins1_staccato_FF_A#6_RR3.opus
</region>

<region>
hivel=127
key=A#5
lovel=0
sample=Violins1_staccato_FF_A#5_RR3.opus
</region>

<region>
end=47421
fade_out=46571
hivel=127
key=A#4
lovel=0
sample=Violins1_staccato_FF_A#4_RR3.opus
</region>

<region>
hivel=127
key=A#3
lovel=0
sample=Violins1_staccato_FF_A#3_RR3.opus
</region>
</group>

<group>
group_label=RR4_0-42
seq_length=4
seq_position=4
xf_cccurve=gain
xfin_hicc1=42
xfout_hicc1=84
xfout_locc1=42

<region>
end=48924
fade_out=48074
hivel=127
key=G6
lovel=0
offset=654
sample=Violins1_staccato_PP_G6_RR4.opus
</region>

<region>
end=49924
fade_out=49074
hivel=127
key=G5
lovel=0
offset=2129
sample=Violins1_staccato_PP_G5_RR4.opus
</region>

<region>
end=47756
fade_out=46906
hivel=127
key=G4
lovel=0
offset=745
sample=Violins1_staccato_PP_G4_RR4.opus
</region>

<region>
end=48105
fade_out=47255
hivel=127
key=G3
lovel=0
offset=3175
sample=Violins1_staccato_PP_G3_RR4.opus
</region>

<region>
end=50020
fade_out=49170
hivel=127
key=G#6
lovel=0
offset=1959
sample=Violins1_staccato_PP_G#6_RR4.opus
</region>

<region>
end=50756
fade_out=49906
hivel=127
key=G#5
lovel=0
offset=1245
sample=Violins1_staccato_PP_G#5_RR4.opus
</region>

<region>
end=46368
fade_out=45518
hivel=127
key=G#4
lovel=0
offset=734
sample=Violins1_staccato_PP_G#4_RR4.opus
</region>

<region>
end=48881
fade_out=48031
hivel=127
key=G#3
lovel=0
offset=1413
sample=Violins1_staccato_PP_G#3_RR4.opus
</region>

<region>
end=48650
fade_out=47800
hivel=127
key=F6
lovel=0
offset=2237
sample=Violins1_staccato_PP_F6_RR4.opus
</region>

<region>
end=49920
fade_out=49070
hivel=127
key=F5
lovel=0
offset=2721
sample=Violins1_staccato_PP_F5_RR4.opus
</region>

<region>
end=50783
fade_out=49933
hivel=127
key=F4
lovel=0
offset=2877
sample=Violins1_staccato_PP_F4_RR4.opus
</region>

<region>
end=49780
fade_out=48930
hivel=127
key=F#6
lovel=0
offset=2553
sample=Violins1_staccato_PP_F#6_RR4.opus
</region>

<region>
end=51203
fade_out=50353
hivel=127
key=F#5
lovel=0
offset=2602
sample=Violins1_staccato_PP_F#5_RR4.opus
</region>

<region>
end=49699
fade_out=48849
hivel=127
key=F#4
lovel=0
offset=506
sample=Violins1_staccato_PP_F#4_RR4.opus
</region>

<region>
end=49985
fade_out=49135
hivel=127
key=E6
lovel=0
offset=3404
sample=Violins1_staccato_PP_E6_RR4.opus
</region>

<region>
end=49340
fade_out=48490
hivel=127
key=E5
lovel=0
offset=2299
sample=Violins1_staccato_PP_E5_RR4.opus
</region>

<region>
end=49561
fade_out=48711
hivel=127
key=E4
lovel=0
offset=2434
sample=Violins1_staccato_PP_E4_RR4.opus
</region>

<region>
end=50753
fade_out=49903
hivel=127
key=D6
lovel=0
offset=2729
sample=Violins1_staccato_PP_D6_RR4.opus
</region>

<region>
end=49565
fade_out=48715
hivel=127
key=D5
lovel=0
offset=3146
sample=Violins1_staccato_PP_D5_RR4.opus
</region>

<region>
end=48762
fade_out=47912
hivel=127
key=D4
lovel=0
offset=1377
sample=Violins1_staccato_PP_D4_RR4.opus
</region>

<region>
end=51045
fade_out=50195
hivel=127
key=D#6
lovel=0
offset=2391
sample=Violins1_staccato_PP_D#6_RR4.opus
</region>

<region>
end=49186
fade_out=48336
hivel=127
key=D#5
lovel=0
offset=2050
sample=Violins1_staccato_PP_D#5_RR4.opus
</region>

<region>
end=48318
fade_out=47468
hivel=127
key=D#4
lovel=0
offset=2371
sample=Violins1_staccato_PP_D#4_RR4.opus
</region>

<region>
end=49071
fade_out=48221
hikey=E7
hivel=127
lokey=C7
lovel=0
offset=1474
pitch_keycenter=C7
sample=Violins1_staccato_PP_C7_RR4.opus
</region>

<region>
end=50269
fade_out=49419
hivel=127
key=C6
lovel=0
offset=2163
sample=Violins1_staccato_PP_C6_RR4.opus
</region>

<region>
end=49612
fade_out=48762
hivel=127
key=C5
lovel=0
offset=3580
sample=Violins1_staccato_PP_C5_RR4.opus
</region>

<region>
end=49529
fade_out=48679
hivel=127
key=C4
lovel=0
offset=2257
sample=Violins1_staccato_PP_C4_RR4.opus
</region>

<region>
end=48076
fade_out=47226
hivel=127
key=C#6
lovel=0
offset=3797
sample=Violins1_staccato_PP_C#6_RR4.opus
</region>

<region>
hivel=127
key=C#5
lovel=0
offset=1689
sample=Violins1_staccato_PP_C#5_RR4.opus
</region>

<region>
end=49359
fade_out=48509
hivel=127
key=C#4
lovel=0
offset=1644
sample=Violins1_staccato_PP_C#4_RR4.opus
</region>

<region>
end=50718
fade_out=49868
hivel=127
key=B6
lovel=0
offset=2871
sample=Violins1_staccato_PP_B6_RR4.opus
</region>

<region>
end=49683
fade_out=48833
hivel=127
key=B5
lovel=0
offset=2341
sample=Violins1_staccato_PP_B5_RR4.opus
</region>

<region>
end=44783
fade_out=43933
hivel=127
key=B4
lovel=0
offset=1377
sample=Violins1_staccato_PP_B4_RR4.opus
</region>

<region>
end=47913
fade_out=47063
hivel=127
key=B3
lovel=0
offset=519
sample=Violins1_staccato_PP_B3_RR4.opus
</region>

<region>
end=49769
fade_out=48919
hivel=127
key=A6
lovel=0
offset=1887
sample=Violins1_staccato_PP_A6_RR4.opus
</region>

<region>
end=51031
fade_out=50181
hivel=127
key=A5
lovel=0
offset=2470
sample=Violins1_staccato_PP_A5_RR4.opus
</region>

<region>
end=49010
fade_out=48160
hivel=127
key=A4
lovel=0
offset=1186
sample=Violins1_staccato_PP_A4_RR4.opus
</region>

<region>
end=46641
fade_out=45791
hivel=127
key=A3
lovel=0
offset=2009
sample=Violins1_staccato_PP_A3_RR4.opus
</region>

<region>
end=49929
fade_out=49079
hivel=127
key=A#6
lovel=0
offset=1926
sample=Violins1_staccato_PP_A#6_RR4.opus
</region>

<region>
end=49652
fade_out=48802
hivel=127
key=A#5
lovel=0
offset=2855
sample=Violins1_staccato_PP_A#5_RR4.opus
</region>

<region>
end=49279
fade_out=48429
hivel=127
key=A#4
lovel=0
offset=1035
sample=Violins1_staccato_PP_A#4_RR4.opus
</region>

<region>
end=46463
fade_out=45613
hivel=127
key=A#3
lovel=0
offset=2225
sample=Violins1_staccato_PP_A#3_RR4.opus
</region>
</group>

<group>
group_label=RR4_43-84
seq_length=4
seq_position=4
xf_cccurve=gain
xfin_hicc1=84
xfin_locc1=43
xfout_hicc1=125
xfout_locc1=84

<region>
end=48180
fade_out=47330
hivel=127
key=G6
lovel=0
sample=Violins1_staccato_MF_G6_RR4.opus
</region>

<region>
end=47000
fade_out=46150
hivel=127
key=G5
lovel=0
sample=Violins1_staccato_MF_G5_RR4.opus
</region>

<region>
end=47000
fade_out=46150
hivel=127
key=G4
lovel=0
offset=25
sample=Violins1_staccato_MF_G4_RR4.opus
</region>

<region>
end=47693
fade_out=46843
hivel=127
key=G3
lovel=0
offset=179
sample=Violins1_staccato_MF_G3_RR4.opus
</region>

<region>
end=47000
fade_out=46150
hivel=127
key=G#6
lovel=0
sample=Violins1_staccato_MF_G#6_RR4.opus
</region>

<region>
end=47000
fade_out=46150
hivel=127
key=G#5
lovel=0
offset=662
sample=Violins1_staccato_MF_G#5_RR4.opus
</region>

<region>
end=45405
fade_out=44555
hivel=127
key=G#4
lovel=0
sample=Violins1_staccato_MF_G#4_RR4.opus
</region>

<region>
end=47000
fade_out=46150
hivel=127
key=G#3
lovel=0
sample=Violins1_staccato_MF_G#3_RR4.opus
</region>

<region>
end=48806
fade_out=47956
hivel=127
key=F6
lovel=0
offset=630
sample=Violins1_staccato_MF_F6_RR4.opus
</region>

<region>
end=47000
fade_out=46150
hivel=127
key=F5
lovel=0
offset=198
sample=Violins1_staccato_MF_F5_RR4.opus
</region>

<region>
end=47000
fade_out=46150
hivel=127
key=F4
lovel=0
offset=19
sample=Violins1_staccato_MF_F4_RR4.opus
</region>

<region>
end=47000
fade_out=46150
hivel=127
key=F#6
lovel=0
sample=Violins1_staccato_MF_F#6_RR4.opus
</region>

<region>
end=47000
fade_out=46150
hivel=127
key=F#5
lovel=0
offset=30
sample=Violins1_staccato_MF_F#5_RR4.opus
</region>

<region>
end=47000
fade_out=46150
hivel=127
key=F#4
lovel=0
sample=Violins1_staccato_MF_F#4_RR4.opus
</region>

<region>
end=48542
fade_out=47692
hivel=127
key=E6
lovel=0
sample=Violins1_staccato_MF_E6_RR4.opus
</region>

<region>
end=47000
fade_out=46150
hivel=127
key=E5
lovel=0
sample=Violins1_staccato_MF_E5_RR4.opus
</region>

<region>
end=47000
fade_out=46150
hivel=127
key=E4
lovel=0
sample=Violins1_staccato_MF_E4_RR4.opus
</region>

<region>
end=47000
fade_out=46150
hivel=127
key=D6
lovel=0
sample=Violins1_staccato_MF_D6_RR4.opus
</region>

<region>
end=47000
fade_out=46150
hivel=127
key=D5
lovel=0
offset=131
sample=Violins1_staccato_MF_D5_RR4.opus
</region>

<region>
end=47000
fade_out=46150
hivel=127
key=D4
lovel=0
sample=Violins1_staccato_MF_D4_RR4.opus
</region>

<region>
end=48814
fade_out=47964
hivel=127
key=D#6
lovel=0
offset=59
sample=Violins1_staccato_MF_D#6_RR4.opus
</region>

<region>
end=48224
fade_out=47374
hivel=127
key=D#5
lovel=0
offset=179
sample=Violins1_staccato_MF_D#5_RR4.opus
</region>

<region>
end=47000
fade_out=46150
hivel=127
key=D#4
lovel=0
sample=Violins1_staccato_MF_D#4_RR4.opus
</region>

<region>
end=44975
fade_out=44125
hikey=E7
hivel=127
lokey=C7
lovel=0
pitch_keycenter=C7
sample=Violins1_staccato_MF_C7_RR4.opus
</region>

<region>
end=48444
fade_out=47594
hivel=127
key=C6
lovel=0
offset=206
sample=Violins1_staccato_MF_C6_RR4.opus
</region>

<region>
end=47000
fade_out=46150
hivel=127
key=C5
lovel=0
sample=Violins1_staccato_MF_C5_RR4.opus
</region>

<region>
end=47000
fade_out=46150
hivel=127
key=C4
lovel=0
offset=56
sample=Violins1_staccato_MF_C4_RR4.opus
</region>

<region>
end=47000
fade_out=46150
hivel=127
key=C#6
lovel=0
offset=200
sample=Violins1_staccato_MF_C#6_RR4.opus
</region>

<region>
end=47000
fade_out=46150
hivel=127
key=C#5
lovel=0
sample=Violins1_staccato_MF_C#5_RR4.opus
</region>

<region>
end=44274
fade_out=43424
hivel=127
key=C#4
lovel=0
sample=Violins1_staccato_MF_C#4_RR4.opus
</region>

<region>
end=47000
fade_out=46150
hivel=127
key=B6
lovel=0
offset=285
sample=Violins1_staccato_MF_B6_RR4.opus
</region>

<region>
end=47000
fade_out=46150
hivel=127
key=B5
lovel=0
offset=153
sample=Violins1_staccato_MF_B5_RR4.opus
</region>

<region>
end=47000
fade_out=46150
hivel=127
key=B4
lovel=0
offset=1025
sample=Violins1_staccato_MF_B4_RR4.opus
</region>

<region>
end=47000
fade_out=46150
hivel=127
key=B3
lovel=0
offset=579
sample=Violins1_staccato_MF_B3_RR4.opus
</region>

<region>
end=47000
fade_out=46150
hivel=127
key=A6
lovel=0
offset=168
sample=Violins1_staccato_MF_A6_RR4.opus
</region>

<region>
end=48512
fade_out=47662
hivel=127
key=A5
lovel=0
offset=152
sample=Violins1_staccato_MF_A5_RR4.opus
</region>

<region>
end=46686
fade_out=45836
hivel=127
key=A4
lovel=0
sample=Violins1_staccato_MF_A4_RR4.opus
</region>

<region>
end=47000
fade_out=46150
hivel=127
key=A3
lovel=0
offset=412
sample=Violins1_staccato_MF_A3_RR4.opus
</region>

<region>
end=47000
fade_out=46150
hivel=127
key=A#6
lovel=0
offset=174
sample=Violins1_staccato_MF_A#6_RR4.opus
</region>

<region>
end=47000
fade_out=46150
hivel=127
key=A#5
lovel=0
sample=Violins1_staccato_MF_A#5_RR4.opus
</region>

<region>
end=47000
fade_out=46150
hivel=127
key=A#4
lovel=0
offset=451
sample=Violins1_staccato_MF_A#4_RR4.opus
</region>

<region>
end=47000
fade_out=46150
hivel=127
key=A#3
lovel=0
sample=Violins1_staccato_MF_A#3_RR4.opus
</region>
</group>

<group>
group_label=RR4_85-127
seq_length=4
seq_position=4
xf_cccurve=gain
xfin_hicc1=127
xfin_locc1=85
xfout_hicc1=127
xfout_locc1=127

<region>
end=48187
fade_out=47337
hivel=127
key=G6
lovel=0
sample=Violins1_staccato_FF_G6_RR4.opus
</region>

<region>
end=47500
fade_out=46650
hivel=127
key=G5
lovel=0
sample=Violins1_staccato_FF_G5_RR4.opus
</region>

<region>
end=47500
fade_out=46650
hivel=127
key=G4
lovel=0
sample=Violins1_staccato_FF_G4_RR4.opus
</region>

<region>
end=48853
fade_out=48003
hivel=127
key=G3
lovel=0
sample=Violins1_staccato_FF_G3_RR4.opus
</region>

<region>
end=47500
fade_out=46650
hivel=127
key=G#6
lovel=0
sample=Violins1_staccato_FF_G#6_RR4.opus
</region>

<region>
end=47500
fade_out=46650
hivel=127
key=G#5
lovel=0
sample=Violins1_staccato_FF_G#5_RR4.opus
</region>

<region>
end=47500
fade_out=46650
hivel=127
key=G#4
lovel=0
sample=Violins1_staccato_FF_G#4_RR4.opus
</region>

<region>
end=47500
fade_out=46650
hivel=127
key=G#3
lovel=0
sample=Violins1_staccato_FF_G#3_RR4.opus
</region>

<region>
end=47500
fade_out=46650
hivel=127
key=F6
lovel=0
sample=Violins1_staccato_FF_F6_RR4.opus
</region>

<region>
end=47500
fade_out=46650
hivel=127
key=F5
lovel=0
sample=Violins1_staccato_FF_F5_RR4.opus
</region>

<region>
end=47500
fade_out=46650
hivel=127
key=F4
lovel=0
sample=Violins1_staccato_FF_F4_RR4.opus
</region>

<region>
end=47500
fade_out=46650
hivel=127
key=F#6
lovel=0
sample=Violins1_staccato_FF_F#6_RR4.opus
</region>

<region>
end=47206
fade_out=46356
hivel=127
key=F#5
lovel=0
sample=Violins1_staccato_FF_F#5_RR4.opus
</region>

<region>
end=47500
fade_out=46650
hivel=127
key=F#4
lovel=0
sample=Violins1_staccato_FF_F#4_RR4.opus
</region>

<region>
end=47500
fade_out=46650
hivel=127
key=E6
lovel=0
sample=Violins1_staccato_FF_E6_RR4.opus
</region>

<region>
end=47500
fade_out=46650
hivel=127
key=E5
lovel=0
sample=Violins1_staccato_FF_E5_RR4.opus
</region>

<region>
end=47500
fade_out=46650
hivel=127
key=E4
lovel=0
sample=Violins1_staccato_FF_E4_RR4.opus
</region>

<region>
end=47500
fade_out=46650
hivel=127
key=D6
lovel=0
sample=Violins1_staccato_FF_D6_RR4.opus
</region>

<region>
end=47500
fade_out=46650
hivel=127
key=D5
lovel=0
sample=Violins1_staccato_FF_D5_RR4.opus
</region>

<region>
end=47500
fade_out=46650
hivel=127
key=D4
lovel=0
sample=Violins1_staccato_FF_D4_RR4.opus
</region>

<region>
end=47500
fade_out=46650
hivel=127
key=D#6
lovel=0
sample=Violins1_staccato_FF_D#6_RR4.opus
</region>

<region>
end=47500
fade_out=46650
hivel=127
key=D#5
lovel=0
sample=Violins1_staccato_FF_D#5_RR4.opus
</region>

<region>
end=47500
fade_out=46650
hivel=127
key=D#4
lovel=0
sample=Violins1_staccato_FF_D#4_RR4.opus
</region>

<region>
end=47500
fade_out=46650
hikey=E7
hivel=127
lokey=C7
lovel=0
pitch_keycenter=C7
sample=Violins1_staccato_FF_C7_RR4.opus
</region>

<region>
end=47500
fade_out=46650
hivel=127
key=C6
lovel=0
sample=Violins1_staccato_FF_C6_RR4.opus
</region>

<region>
end=47500
fade_out=46650
hivel=127
key=C5
lovel=0
sample=Violins1_staccato_FF_C5_RR4.opus
</region>

<region>
end=47500
fade_out=46650
hivel=127
key=C4
lovel=0
sample=Violins1_staccato_FF_C4_RR4.opus
</region>

<region>
end=47500
fade_out=46650
hivel=127
key=C#6
lovel=0
sample=Violins1_staccato_FF_C#6_RR4.opus
</region>

<region>
end=47500
fade_out=46650
hivel=127
key=C#5
lovel=0
sample=Violins1_staccato_FF_C#5_RR4.opus
</region>

<region>
end=47500
fade_out=46650
hivel=127
key=C#4
lovel=0
sample=Violins1_staccato_FF_C#4_RR4.opus
</region>

<region>
end=47500
fade_out=46650
hivel=127
key=B6
lovel=0
sample=Violins1_staccato_FF_B6_RR4.opus
</region>

<region>
end=47500
fade_out=46650
hivel=127
key=B5
lovel=0
sample=Violins1_staccato_FF_B5_RR4.opus
</region>

<region>
end=47500
fade_out=46650
hivel=127
key=B4
lovel=0
sample=Violins1_staccato_FF_B4_RR4.opus
</region>

<region>
end=47500
fade_out=46650
hivel=127
key=B3
lovel=0
sample=Violins1_staccato_FF_B3_RR4.opus
</region>

<region>
end=47952
fade_out=47102
hivel=127
key=A6
lovel=0
sample=Violins1_staccato_FF_A6_RR4.opus
</region>

<region>
end=48022
fade_out=47172
hivel=127
key=A5
lovel=0
sample=Violins1_staccato_FF_A5_RR4.opus
</region>

<region>
end=47500
fade_out=46650
hivel=127
key=A4
lovel=0
sample=Violins1_staccato_FF_A4_RR4.opus
</region>

<region>
end=47500
fade_out=46650
hivel=127
key=A3
lovel=0
sample=Violins1_staccato_FF_A3_RR4.opus
</region>

<region>
end=46598
fade_out=45748
hivel=127
key=A#6
lovel=0
sample=Violins1_staccato_FF_A#6_RR4.opus
</region>

<region>
end=47500
fade_out=46650
hivel=127
key=A#5
lovel=0
sample=Violins1_staccato_FF_A#5_RR4.opus
</region>

<region>
end=48252
fade_out=47402
hivel=127
key=A#4
lovel=0
sample=Violins1_staccato_FF_A#4_RR4.opus
</region>

<region>
end=47500
fade_out=46650
hivel=127
key=A#3
lovel=0
sample=Violins1_staccato_FF_A#3_RR4.opus
</region>
</group>